# xmcd
#
# Track frame offsets: 
#        150
#        11470
#        22562
#        34050
#        47312
#        57490
#        67802
#        79872
#        90515
#        100017
#        110450
#        118857
#        129502
#        140920
#        153602
#        163417
#        175055
#        186772
#        195712
#        207572
#        219257
#        230832
#        242400
#        253065
#        263380
#        278790
#        291195
#        302652
#        316330
#        328962
#        340007
#
# Disc length: 4686 seconds
#
# Revision: 2
# Processed by: cddbd v1.5.2PL0 Copyright (c) Steve Scherf et al.
# Submitted via: ExactAudioCopy v1.3
#
DISCID=b7124c1f
DTITLE=Wynn Stewart - Wishful Thinking_CD03
DYEAR=2000
DGENRE=Country
TTITLE0=Couples Only
TTITLE1=Another Day, Another Dollar
TTITLE2=One Way To Go
TTITLE3=Don't Look Back
TTITLE4=I'm Not The Man I Used To Be
TTITLE5=Slightly Used
TTITLE6=The Happy Part Of Town
TTITLE7=Half Of This, Half Of That
TTITLE8=Don't Spook Me
TTITLE9=I Keep Forgettin' That I Forgot About You
TTITLE10=Do Die
TTITLE11=Does He Love You Like I Do
TTITLE12=Sha-Marie
TTITLE13=You Told Him
TTITLE14=Take It Or Leave It
TTITLE15='Cause I Have You
TTITLE16=Happy Crazy
TTITLE17=Half Way In Love
TTITLE18=Sing A Sad Song
TTITLE19=My Rosalie
TTITLE20=You Took Her Off My Hands (1965)
TTITLE21=Money Talks
TTITLE22=Angels Don't Lie
TTITLE23=You Kiss Me Like You're Waving Goodbye
TTITLE24=The Tourist
TTITLE25=Ol' What's Her Name
TTITLE26=It's Such A Pretty World Today
TTITLE27=Unfaithful Arms
TTITLE28=Let's Pretend We're Kids Again
TTITLE29=The World's Youngest Naughty Old Man
TTITLE30=You Can Always Give Her Back To Me
EXTD=
EXTT0=
EXTT1=
EXTT2=
EXTT3=
EXTT4=
EXTT5=
EXTT6=
EXTT7=
EXTT8=
EXTT9=
EXTT10=
EXTT11=
EXTT12=
EXTT13=
EXTT14=
EXTT15=
EXTT16=
EXTT17=
EXTT18=
EXTT19=
EXTT20=
EXTT21=
EXTT22=
EXTT23=
EXTT24=
EXTT25=
EXTT26=
EXTT27=
EXTT28=
EXTT29=
EXTT30=
PLAYORDER=
